<svg id="Capa_1" data-name="Capa 1" xmlns="http://www.w3.org/2000/svg" viewBox="0 0 475.15 76.64"><defs><style>.cls-1,.cls-2{fill:#101010;}.cls-1{fill-rule:evenodd;}.cls-2{font-size:50px;font-family:Poppins-ExtraBold, Poppins;font-weight:800;}.cls-3{font-size:52px;font-family:Cunia;font-weight:400;letter-spacing:-0.01em;}</style></defs><title>logo</title><path class="cls-1" d="M13,40H22.8a3.14,3.14,0,0,1,2.6,1.16l3.75,17.16c.6,3.13,3.17,2.91,3.17,2.91H42.71C44,61.21,46,60.85,39,38c0,0,0-.87,0-.87,7.26-6.21,6.65-17.17,6.65-17.17C45,1.9,29.15.73,29.15.73H6.93A7,7,0,0,0,.29,7.42V59.21a1.87,1.87,0,0,0,1.45,2H14.43a2.35,2.35,0,0,0,2-1.45V44.08C16.39,41.35,13,40,13,40ZM26.85,13.53a6.74,6.74,0,0,1,6.93,7.27c0,7.71-6.93,7-6.93,7H18.2s-2.31.41-2.31-2.62V17.31a4.07,4.07,0,0,0-3.46-3.78Zm37.51-4a2.78,2.78,0,0,0-1.73-2.62H50.51c-1.75,0-2,2-2,2s0,46.69,0,49.74S52.24,63,52.24,63l-33.46.2c-2.42.09-2.3,2-2.3,2s0,9.29,0,9.31a1.81,1.81,0,0,0,1.73,2S58,76.35,58,76.37c4.9-.17,6.35-5.82,6.35-5.82S64.37,11.85,64.36,9.48Z"/><text class="cls-2" transform="translate(83.09 57.73)"><tspan xml:space="preserve">  ohn </tspan><tspan class="cls-3" x="129.05" y="0">R</tspan><tspan x="164.93" y="0">odriguez</tspan></text><path class="cls-1" d="M99.48,22.19a1.55,1.55,0,0,0-1-1.46H91.73c-1,0-1.13,1.14-1.13,1.14s0,24.12,0,25.82,2.1,2.45,2.1,2.45L79,50.25c-1.36,0-1.29,1.14-1.29,1.14s0,5.2,0,5.21a1,1,0,0,0,1,1.14l17.27-.12c2.74-.09,3.55-3.25,3.55-3.25S99.49,23.52,99.48,22.19Z"/></svg>