<svg id="Capa_1" data-name="Capa 1" xmlns="http://www.w3.org/2000/svg" viewBox="0 0 1918.24 2188.55"><defs><style>.cls-1{fill:#fcda14;}.cls-1,.cls-2,.cls-3,.cls-4,.cls-5,.cls-6,.cls-7{fill-rule:evenodd;}.cls-2{fill:#d61c4e;}.cls-3{fill:#201e41;}.cls-4{fill:#940076;}.cls-5{fill:#50267b;}.cls-6{fill:#2b2662;}</style></defs><title>fgd</title><polygon class="cls-1" points="0 673.64 1918.24 671.82 1919.99 1556.18 -0.01 1556.18 0 673.64"/><path class="cls-2" d="M0,1014.71c129.81-14.08,375-44.14,435.28-34.77,0,0,60.18,184.53-1,471.77,29.11,2.66,50-3.34,75.71-15.32,0,0-52.85-195,3.88-454.4,0,0,210.42-1.59,223.27-1s22.34,25.5,33,28.6,16.52.56,33-29.62H844c188.13,99.08,142.08-26.14,198,48,60.62,68.09,66.75-60.9,109.68-48,28.59,5.69,118.4-13.75,134,14.29,5.92,10.9,21.44,26.16,35,1s26.37-17.27,36.88-16.34S1432.2,982,1432.2,982s107.85,173.18,21.35,436c0,0-32,50.26-82.51,14.3,0,0-27.42-72.19-61.15-61.27s-34.34,55.27-57.27,57.18c-57.2-33.94-231.68,37.69-279.57,0-69.38-57.62-101.22,50.85-188.32,11.22-112.39,3.43-336.56,23.36-428.08,66.39L0,1718.24v232.11c626.9,106.4,1400.15,222.49,1918.25-106.45,0,.07,0-408.68,0-408.68l-370.54-6S1457.24,1172.09,1561.3,981l247.53,1c18.72.31,24.15,44.17,52.42,14.29,26-32.73,30.76-9.32,57-12.46V839.19s-38.46-9.53-99.51-10.85c-202.33-4.4-657.77-3.69-826.28,10.71-168.52-21.13-506.87-27.6-675.61-9.2,0,0-189.1,21.59-316.85,34.67Z"/><path class="cls-3" d="M0,1530.73c266.7-130.37,738.57-317,824.43-161.82,77.1,139.27-290.28,310.53-354.54,393.82,1.1-177.47-87.59-252.36-186,2.51C248.82,1840.37,0,1908,0,1908Z"/><path class="cls-4" d="M0,951.12S310.24,852,402.27,881.93c288.7,104.2,140.61,19.51,317.41,13.28,184.41,87,429.17,2.19,449.44,4.07s49.51,25.56,49.51,25.56,39.61,25.52,111.63-5.11c218-92.71,273.19,75.21,404.14-32,2.87-3.07,36.72,390.31-11,620.22-9.14,44,118.15,117,106.78-5.11-10.09-108.41-33-444.64,2.5-664.2,22.49,5.81,59.93,6.93,85.56,11.85,0,0,0-181.23,0-181.23S550.2,641.36,0,716.47Z"/><path class="cls-5" d="M1918.25,552.55,0,593.19V804.37c448.15,54.14,611.27-352.8,593,616.16,44.55,27.35,31.65,13.38,71.81-11.25,5,.81-151.21-744.14,218.4-642.31,99,43.1,215.86,11.81,276.66-6.11,118.24-53.49,127.27,89.44,242.68,12.27,68.08-47.54,66.49-1.27,90.27-12.27,0,0,106.32,11.12,142.7,2,0,0,126.3,67.12,185.4-33.69l97.31-24.3"/><path class="cls-6" d="M536.22,757.37c-31.06,3.31-29.54,67.31,2.92,69.44C574.77,830.7,572.92,746.36,536.22,757.37Z"/><path class="cls-6" d="M0,655.06c18.09.12,322.43-26.88,337.33-17.62,70.64,5.6,177.47-85.55,199,45.95,46.73,139.94,64.6-120.8,146.58-72.49,31.74,14.94,56.37,81.73,120.37,39.81,44.49-26.38,26.64-46.38,91.25-44.93s83.46-1.87,107.75,37.78c74.82,171,120.37-22.08,174.72-38.81,162.57-40.8,159,126.8,205.79,222.63,171.63,132.21-1.16-321.51,344.6-213.41,163.36-11.35,190.88-51.84,190.88-51.84v-154L0,439.8Z"/><path class="cls-3" d="M1119.62,536.8c21.28-2.63,37.79,46.5-1,50C1078.41,584.06,1098.54,531.33,1119.62,536.8Z"/><path class="cls-3" d="M651.73,653.21c-135.45,95.52,138.09,259.34,50.49,28.59C702.21,681.81,684.21,636.13,651.73,653.21Z"/><path class="cls-3" d="M676,829.87c-27.64-.22-33.55,46.67,0,50C707.7,885.12,708,825.65,676,829.87Z"/><path class="cls-3" d="M-1.56,486.92s201.65-20.38,222-21.2C297,518.44,293.33,1392.91,244.71,1495l126.22-28.59s-67.94-431.36,37.86-966c0,0,59.78-89.35,130.07,19.4,163.69,246.21,107.3-106,282.48-37.78,82,36.07,109.11-50.39,200.94-11.24,120.93,135.78,42.83-119,519.33,45,0,0,155.31-52.1,155.31-52.1l221.32-2V287.09L0,235.72Z"/><path class="cls-7" d="M-1,398.39s342.4-62.94,358.62-18.84S433.55,532,501.27,503.11c35-14.93,13.79-142.71,71.83-181.77,0,0,45.14,93.75,101.87-1.52,0,0,42.31,157.73,101,115.89,0,0,29-22.93,44.66-60.24,89.3-173.15,68.15,166.58,157.26,128.66,62.5-10.61,46.89-268.78,130.08-155.22,91.3,176.12,172.65-48.4,210.63,8.16,0,0,31.89-.84,43.68,24.52s12.4,24.33,27.18,75.57c24.55,94.19,85.64,117.38,106.78-27.57,41.78,9.81,79,282.6,168.9,251.19,67.54-3.54,53.32-236.07,108.73-254.26,66.06-21.33,51.48,15.51,144.36-50.85,0,0,0-375.67,0-375.67H0Z"/><path class="cls-7" d="M0,1863.83S227.48,1799.76,259.29,1728c66.48-150,111.44-164.2,142.69-166.45,21.77-1.57,61.12,1.27,76.69,155.21,10.72,8.69,316.56-214.18,354.31-297.15,44.82,122.26-475.87,424.55-21.35,590.21,0,0,423.25-327.8,582.42-182.77,93.92-108.14,246.44-276.86,524.18-182.79l0,544.27H0Z"/></svg>